<svg width="294" height="59" viewBox="0 0 294 59" fill="none" xmlns="http://www.w3.org/2000/svg"><g clip-path="url(#a)"><path d="M107.832 35.15c2.067 0 3.816.698 5.247 2.094 1.431 1.397 2.147 3.106 2.147 5.127 0 2.067-.71 3.793-2.13 5.178-1.42 1.385-3.174 2.078-5.264 2.078h-8.961V25.782h14.31v2.997H102.04v6.37h5.792zm0 11.513c1.181 0 2.186-.409 3.015-1.226.829-.817 1.244-1.84 1.244-3.066 0-1.204-.415-2.214-1.244-3.032-.829-.817-1.834-1.226-3.015-1.226h-5.792v8.55h5.792zm21.499-14.068h3.169l-6.951 18.088c-.727 1.93-1.749 3.4-3.066 4.411-1.318 1.01-2.817 1.46-4.498 1.346v-2.76c2.09.16 3.623-.976 4.6-3.406l.273-.613-7.394-17.066h3.135l5.826 13.353 4.906-13.353zm20.444 17.032h-3.476l-4.77-6.438-4.804 6.438h-3.475l6.542-8.755-6.168-8.277h3.51l4.395 5.927 4.395-5.927h3.476l-6.133 8.243 6.508 8.789zm13.935-17.032v2.861h-8.211v14.171h-2.964V32.595h11.175zm16.014 0h2.964v17.032h-2.964v-2.93c-1.476 2.249-3.623 3.373-6.44 3.373-2.385 0-4.418-.869-6.098-2.606-1.681-1.737-2.522-3.855-2.522-6.353 0-2.498.841-4.616 2.522-6.353 1.68-1.738 3.713-2.606 6.098-2.606 2.817 0 4.964 1.124 6.44 3.372v-2.93zm-6.065 14.614c1.726 0 3.169-.586 4.327-1.755 1.159-1.17 1.738-2.617 1.738-4.343s-.579-3.174-1.738-4.343c-1.158-1.17-2.601-1.755-4.327-1.755-1.703 0-3.135.585-4.293 1.755-1.158 1.17-1.738 2.617-1.738 4.343s.58 3.174 1.738 4.343c1.158 1.17 2.59 1.755 4.293 1.755zm27.735-14.614v17.032h-2.965v-14.17h-6.712v6.948c0 2.794-.562 4.74-1.686 5.842-1.125 1.102-2.709 1.562-4.753 1.38v-2.793c1.158.159 2.027-.097 2.606-.767.579-.67.869-1.913.869-3.73v-9.742h12.641zm17.172 0v2.861h-5.792v14.171h-2.965v-14.17h-5.826v-2.862h14.583zm3.986 9.878c.296 1.522.994 2.703 2.096 3.543 1.101.84 2.459 1.26 4.071 1.26 2.249 0 3.885-.829 4.907-2.486l2.521 1.43c-1.658 2.567-4.157 3.85-7.496 3.85-2.703 0-4.9-.846-6.593-2.538-1.692-1.692-2.538-3.832-2.538-6.421 0-2.566.829-4.701 2.487-6.404 1.658-1.703 3.805-2.555 6.44-2.555 2.498 0 4.537.88 6.116 2.64 1.578 1.76 2.368 3.877 2.368 6.353 0 .431-.034.874-.102 1.328h-14.277zm5.895-7.528c-1.59 0-2.908.449-3.953 1.346-1.044.897-1.692 2.095-1.942 3.594h11.38c-.249-1.613-.885-2.84-1.908-3.68-1.022-.84-2.214-1.26-3.577-1.26zm21.295-2.793c2.385 0 4.418.868 6.099 2.606 1.681 1.737 2.521 3.855 2.521 6.353 0 2.498-.84 4.616-2.521 6.353s-3.714 2.606-6.099 2.606c-2.817 0-4.963-1.124-6.44-3.373v9.743h-2.964V32.595h2.964v2.93c1.477-2.25 3.623-3.373 6.44-3.373zm-.375 15.056c1.704 0 3.135-.584 4.293-1.754 1.159-1.17 1.738-2.617 1.738-4.343s-.579-3.174-1.738-4.343c-1.158-1.17-2.589-1.755-4.293-1.755-1.726 0-3.169.585-4.327 1.755-1.159 1.17-1.738 2.617-1.738 4.343s.579 3.174 1.738 4.343c1.158 1.17 2.601 1.755 4.327 1.755zm24.907-14.613h2.385v17.032h-2.931V37.67l-9.437 11.957h-2.385V32.595h2.93V44.55l9.438-11.956zm19.625 0v17.032h-2.93v-6.132h-2.487l-4.77 6.132H280.1l4.974-6.302c-1.272-.318-2.305-.954-3.1-1.908-.795-.954-1.193-2.066-1.193-3.338 0-1.567.557-2.873 1.67-3.917 1.113-1.045 2.51-1.567 4.191-1.567h7.257zm-7.155 8.243h4.225v-5.484h-4.225c-.84 0-1.556.25-2.147.75-.59.499-.885 1.169-.885 2.01 0 .817.295 1.475.885 1.975.591.5 1.307.75 2.147.75z" fill="#000"/><path fill-rule="evenodd" clip-rule="evenodd" d="M4.856 16.886h82.951v37.166a4.956 4.956 0 0 1-4.957 4.956H4.856a4.956 4.956 0 0 1-4.957-4.956v-32.21a4.956 4.956 0 0 1 4.957-4.956z" fill="#FBBA00"/><path fill-rule="evenodd" clip-rule="evenodd" d="M98.112 12.4c1.641-2.2 2.473-6.037 1.171-12.393C82.911 2.538 86.431 11.402 87.99 14.165c1.953-3.194 5.89-7.935 8.473-10.25-1.697 2.468-4.23 6.6-5.638 9.987 2.209-2.528 4.797-2.673 7.288-1.502zm5.155 5.188c-8.4-8.96-11.986-2.785-12.856-.68 2.476-.12 4.954.193 7.324.923-2.346-.117-4.694.2-6.924.937 1.43 2.432 5.282 6.91 12.456-1.18z" fill="#88BD2F"/><path d="M50.005 26.137h2.155v2.154h-2.154v-2.154zM19.12 39.644l5.354-13.507h3.564l-8.23 19.39c-1.208 2.843-2.794 4.103-5.713 4.222-1.348.056-2.861-.228-4.445-.79v-2.718c2.78.818 3.14.91 4.135.892 1.35-.026 2.495-.725 3.795-3.768L9.65 26.137h3.438l6.032 13.507zm23.355 10.1h-2.97V43.47a15.63 15.63 0 0 1-4 .513c-4.17 0-6.647-2.146-6.68-6.396v-5.162h2.957v5.26c0 2.582 1.294 3.71 3.723 3.71 1.364 0 2.696-.17 4-.513v-8.424h2.97v17.288zm11.83 0c-5.546 0-8.233-3.638-8.233-8.706 0-4.422 2.87-8.581 7.854-8.581 6.209 0 7.389 4.536 7.389 9.464H48.81c.084 3.039 2.275 5.4 5.588 5.4 2.002 0 3.556-.665 4.807-2.15l1.876 1.356c-1.508 2.145-3.769 3.218-6.778 3.218zm-.38-14.953c-2.895 0-4.68 2.274-5.01 4.795h9.66c0-2.583-1.75-4.795-4.65-4.795zm24.134.056H72.25v14.898h-2.958V34.847H63.6v-2.39h14.459v2.39zm-22.833-8.69h2.154v2.153h-2.154v-2.154z" fill="#FEFEFE"/></g><defs><clipPath id="a"><path fill="#fff" d="M0 0h294v59H0z"/></clipPath></defs></svg>