<svg width="311" height="311" viewBox="0 0 311 311" fill="none" xmlns="http://www.w3.org/2000/svg"><g clip-path="url(#a)"><path d="M269.619 165.815c2.575-36.046-30.614-63.832-65.454-55.375-7.063-31.825-35.451-55.624-69.402-55.624-40.237 0-72.682 33.435-71.03 74.035l-.066-.001C28.505 128.85 0 157.354 0 192.517c0 34.335 27.18 62.317 61.198 63.615v.052h204.528c25.004 0 45.274-20.27 45.274-45.274 0-23.69-18.201-43.119-41.381-45.095z" fill="#D8ECFE"/><path d="M269.619 165.815c2.575-36.047-30.614-63.832-65.454-55.375-7.063-31.825-35.451-55.624-69.402-55.624-11.235 0-21.862 2.609-31.309 7.25a71.832 71.832 0 0 1 7.203-.363c33.951 0 62.339 23.8 69.402 55.624 34.841-8.458 68.029 19.328 65.455 55.375 23.18 1.976 41.38 21.405 41.38 45.096 0 16.188-8.502 30.382-21.278 38.386h.111c25.004 0 45.274-20.27 45.274-45.274-.001-23.69-18.202-43.119-41.382-45.095z" fill="#C4E2FF"/></g><defs><clipPath id="a"><path fill="#fff" d="M0 0h311v311H0z"/></clipPath></defs></svg>