<svg width="82" height="88" viewBox="0 0 82 88" fill="none" xmlns="http://www.w3.org/2000/svg"><path d="M11.057 58.532a5.992 5.992 0 0 1-2.852 2.056 5.752 5.752 0 0 1-3.467.062 5.97 5.97 0 0 1-2.918-1.952 6.386 6.386 0 0 1-1.394-3.313 6.489 6.489 0 0 1 .598-3.563 6.146 6.146 0 0 1 2.39-2.621 5.788 5.788 0 0 1 3.381-.8 5.846 5.846 0 0 1 3.24 1.288 6.18 6.18 0 0 1 1.546 1.86c.393.72.644 1.515.739 2.338a6.514 6.514 0 0 1-.184 2.455 6.35 6.35 0 0 1-1.079 2.19zM27.86 71.949a6.08 6.08 0 0 1-1.76 1.606 5.824 5.824 0 0 1-2.214.781 5.748 5.748 0 0 1-2.332-.162 5.895 5.895 0 0 1-2.095-1.082 6.178 6.178 0 0 1-1.54-1.836 6.438 6.438 0 0 1-.748-2.31 6.517 6.517 0 0 1 .156-2.434 6.363 6.363 0 0 1 1.036-2.186c.969-1.315 2.398-2.173 3.973-2.388a5.809 5.809 0 0 1 4.428 1.244c1.26 1.01 2.082 2.502 2.288 4.147a6.452 6.452 0 0 1-1.192 4.62zM44.514 85.52c-.969 1.314-2.398 2.173-3.974 2.387a5.81 5.81 0 0 1-4.427-1.244c-1.26-1.01-2.082-2.502-2.288-4.146a6.452 6.452 0 0 1 1.192-4.62 6.077 6.077 0 0 1 1.76-1.607 5.825 5.825 0 0 1 2.214-.78 5.75 5.75 0 0 1 2.332.162c.76.213 1.471.58 2.095 1.081a6.18 6.18 0 0 1 1.54 1.836c.392.711.646 1.496.748 2.31a6.517 6.517 0 0 1-.156 2.434 6.363 6.363 0 0 1-1.036 2.187zM19.97 47.097a6.072 6.072 0 0 1-1.782 1.614 5.82 5.82 0 0 1-2.241.77c-.79.1-1.589.034-2.353-.192a5.905 5.905 0 0 1-2.099-1.125c-1.259-1.011-2.082-2.503-2.287-4.147a6.452 6.452 0 0 1 1.192-4.62c.968-1.314 2.398-2.173 3.973-2.387a5.81 5.81 0 0 1 4.428 1.244 6.165 6.165 0 0 1 1.584 1.834c.405.715.67 1.508.78 2.331.108.823.059 1.661-.147 2.464a6.364 6.364 0 0 1-1.049 2.214zM36.624 60.057a5.931 5.931 0 0 1-1.743 1.604 5.68 5.68 0 0 1-2.204.768c-.777.1-1.565.036-2.317-.189a5.763 5.763 0 0 1-2.064-1.116 6.25 6.25 0 0 1-2.032-2.962 6.51 6.51 0 0 1-.105-3.642 6.293 6.293 0 0 1 1.86-3.084 5.874 5.874 0 0 1 3.19-1.479 5.773 5.773 0 0 1 3.439.63 6.112 6.112 0 0 1 2.519 2.522 6.477 6.477 0 0 1-.543 6.948zM53.427 73.475a6.005 6.005 0 0 1-2.839 2.12 5.752 5.752 0 0 1-3.49.11 5.963 5.963 0 0 1-2.955-1.94 6.384 6.384 0 0 1-1.417-3.33 6.488 6.488 0 0 1 .603-3.588 6.143 6.143 0 0 1 2.417-2.629 5.785 5.785 0 0 1 3.412-.775c1.186.1 2.316.568 3.246 1.341a6.023 6.023 0 0 1 1.537 1.82c.39.707.641 1.49.737 2.3.095.81.034 1.633-.181 2.418a6.194 6.194 0 0 1-1.07 2.153zM28.881 34.443a6.075 6.075 0 0 1-1.759 1.606 5.822 5.822 0 0 1-2.214.781 5.75 5.75 0 0 1-2.332-.162 5.894 5.894 0 0 1-2.096-1.081 6.178 6.178 0 0 1-1.538-1.836 6.437 6.437 0 0 1-.75-2.311 6.514 6.514 0 0 1 .156-2.434 6.365 6.365 0 0 1 1.037-2.186c.968-1.314 2.398-2.173 3.973-2.388a5.81 5.81 0 0 1 4.428 1.244c1.259 1.011 2.082 2.503 2.287 4.147a6.452 6.452 0 0 1-1.192 4.62zM45.538 48.01a6.078 6.078 0 0 1-1.76 1.607 5.824 5.824 0 0 1-2.214.78 5.747 5.747 0 0 1-2.332-.162 5.895 5.895 0 0 1-2.095-1.081 6.183 6.183 0 0 1-1.54-1.836 6.44 6.44 0 0 1-.748-2.31 6.514 6.514 0 0 1 .156-2.434 6.364 6.364 0 0 1 1.036-2.187c.969-1.314 2.398-2.173 3.973-2.387a5.809 5.809 0 0 1 4.428 1.244c1.26 1.01 2.082 2.502 2.288 4.146a6.452 6.452 0 0 1-1.192 4.62zM62.34 62.343a5.993 5.993 0 0 1-2.853 2.056 5.752 5.752 0 0 1-3.467.062 5.969 5.969 0 0 1-2.918-1.952 6.387 6.387 0 0 1-1.394-3.313 6.488 6.488 0 0 1 .598-3.563 6.146 6.146 0 0 1 2.39-2.62 5.787 5.787 0 0 1 3.381-.801 5.845 5.845 0 0 1 3.24 1.288 6.182 6.182 0 0 1 1.547 1.86c.392.72.643 1.516.738 2.339a6.516 6.516 0 0 1-.184 2.454 6.354 6.354 0 0 1-1.078 2.19zM37.648 22.551a5.93 5.93 0 0 1-1.743 1.604 5.68 5.68 0 0 1-2.204.769c-.777.1-1.565.035-2.317-.19a5.762 5.762 0 0 1-2.064-1.116 6.25 6.25 0 0 1-2.032-2.962 6.511 6.511 0 0 1-.105-3.641 6.292 6.292 0 0 1 1.86-3.085 5.874 5.874 0 0 1 3.19-1.478 5.773 5.773 0 0 1 3.439.629 6.112 6.112 0 0 1 2.519 2.523 6.477 6.477 0 0 1-.543 6.947zM54.45 35.966a6.006 6.006 0 0 1-2.84 2.12 5.752 5.752 0 0 1-3.49.11 5.962 5.962 0 0 1-2.955-1.94 6.384 6.384 0 0 1-1.417-3.33 6.489 6.489 0 0 1 .603-3.588 6.143 6.143 0 0 1 2.418-2.629 5.785 5.785 0 0 1 3.411-.775c1.186.1 2.316.568 3.246 1.341a6.025 6.025 0 0 1 1.538 1.82c.39.707.64 1.49.736 2.3.095.81.034 1.633-.181 2.418a6.198 6.198 0 0 1-1.07 2.153zM71.252 49.538a6.073 6.073 0 0 1-1.782 1.615 5.82 5.82 0 0 1-2.241.77 5.75 5.75 0 0 1-2.352-.192 5.904 5.904 0 0 1-2.1-1.125c-1.258-1.011-2.081-2.503-2.287-4.147a6.452 6.452 0 0 1 1.192-4.62c.969-1.314 2.398-2.173 3.974-2.387a5.81 5.81 0 0 1 4.427 1.244 6.168 6.168 0 0 1 1.584 1.834c.406.715.671 1.508.78 2.331.109.823.06 1.661-.146 2.464a6.363 6.363 0 0 1-1.05 2.213zM46.56 10.505c-.97 1.314-2.399 2.173-3.974 2.387a5.81 5.81 0 0 1-4.427-1.244c-1.26-1.01-2.083-2.502-2.288-4.146a6.452 6.452 0 0 1 1.192-4.62 6.077 6.077 0 0 1 1.76-1.607 5.822 5.822 0 0 1 2.213-.78 5.75 5.75 0 0 1 2.333.162c.76.213 1.471.58 2.095 1.081a6.178 6.178 0 0 1 1.539 1.836c.392.711.647 1.497.748 2.31a6.514 6.514 0 0 1-.155 2.434 6.364 6.364 0 0 1-1.036 2.187zM63.362 24.075a5.993 5.993 0 0 1-2.853 2.056 5.751 5.751 0 0 1-3.467.062 5.968 5.968 0 0 1-2.918-1.952 6.386 6.386 0 0 1-1.394-3.313 6.489 6.489 0 0 1 .598-3.564 6.146 6.146 0 0 1 2.39-2.62 5.787 5.787 0 0 1 3.381-.8 5.845 5.845 0 0 1 3.24 1.288 6.181 6.181 0 0 1 1.547 1.86c.392.72.643 1.515.738 2.338a6.511 6.511 0 0 1-.184 2.455 6.353 6.353 0 0 1-1.078 2.19zM80.164 37.492a6.088 6.088 0 0 1-1.758 1.653c-.685.424-1.444.7-2.234.814a5.748 5.748 0 0 1-2.361-.152 5.897 5.897 0 0 1-2.12-1.095c-1.26-1.025-2.087-2.523-2.305-4.174a6.616 6.616 0 0 1 1.135-4.669 6.141 6.141 0 0 1 1.765-1.635 5.883 5.883 0 0 1 2.23-.806 5.805 5.805 0 0 1 2.356.146c.769.21 1.49.575 2.123 1.075a6.233 6.233 0 0 1 1.567 1.842c.402.715.664 1.506.773 2.327a6.579 6.579 0 0 1-.14 2.459 6.432 6.432 0 0 1-1.03 2.215z" fill="#FFAC49"/></svg>