<svg width="46" height="47" viewBox="0 0 46 47" fill="none" xmlns="http://www.w3.org/2000/svg"><path d="M23.108 0l-1.315 3.812c-1.023-1.22-1.9-2.44-2.922-3.507C13.486 1.1 8.613 4.053 5.283 8.538 2.03 12.597.269 17.732.315 23.022l4.091 1.83-3.652 2.592c1.084 5.159 3.814 9.782 7.743 13.112a21.751 21.751 0 0 0 7.636 4.76 21.066 21.066 0 0 0 8.819 1.2 21.23 21.23 0 0 0 8.55-2.554 22.142 22.142 0 0 0 6.874-5.89 23.245 23.245 0 0 0 4.064-8.256c.8-3.013 1-6.165.586-9.261a23.52 23.52 0 0 0-2.99-8.742 22.513 22.513 0 0 0-6.072-6.782C32.316 1.941 27.804.175 23.108 0zM35.38 33.847c-2.098 2.742-4.93 4.77-8.136 5.828a16.271 16.271 0 0 1-9.867.111c-3.227-.985-6.1-2.95-8.254-5.643-2.154-2.694-3.491-5.996-3.842-9.485-.351-3.49.3-7.01 1.872-10.111 1.57-3.102 3.99-5.646 6.951-7.309A16.354 16.354 0 0 1 23.78 5.21c3.346.34 6.52 1.711 9.117 3.939a17.383 17.383 0 0 1 4.206 5.266 18.09 18.09 0 0 1 1.949 6.545c.23 2.295.025 4.615-.605 6.826a17.802 17.802 0 0 1-3.066 6.062z" fill="#FFAC49"/></svg>