<svg width="525" height="525" viewBox="0 0 525 525" fill="none" xmlns="http://www.w3.org/2000/svg"><path d="M230.368 522.822l18.52-41.855c10.742 14.446 21.02 29.262 31.391 43.337a259.284 259.284 0 0 0 171.496-79.636 266.79 266.79 0 0 0 72.876-161.31c-15.65-8.426-30.466-16.945-46.3-25.372l44.633-26.854a262.43 262.43 0 0 0-516.11-28.378 262.427 262.427 0 0 0 222.938 320.068h.556zM116.377 122.327A203.17 203.17 0 0 1 336.859 73.6a203.165 203.165 0 1 1-214.555 335.787 203.72 203.72 0 0 1-5.927-287.06z" fill="#FBBA00"/></svg>