<svg width="474" height="418" viewBox="0 0 474 418" fill="none" xmlns="http://www.w3.org/2000/svg"><path d="M269.324 132.553c63.241 25.492 107.133 98.665 137.81 179.391 30.677 80.254 48.611 168.533 31.621 252.564-17.462 84.03-69.849 163.812-142.058 215.741-72.209 52.401-164.239 76.949-246.36 63.259-81.647-14.163-153.384-66.564-220.401-120.853-67.017-53.817-129.315-109.051-140.642-173.726-10.855-65.147 28.317-139.264 49.555-224.239 20.766-85.447 23.126-181.279 70.321-212.437 47.195-31.157 139.226 2.833 226.537 8.97 87.783 6.609 170.375-14.635 233.617 11.33z" fill="#FBBA00"/><mask id="a" maskUnits="userSpaceOnUse" x="-392" y="0" width="866" height="866"><path d="M251.005 162.375c58.022 23.382 98.291 90.497 126.436 164.54 28.145 73.61 44.599 154.581 29.011 231.655-16.021 77.074-64.084 150.251-130.333 197.881-66.249 48.063-150.684 70.579-226.026 58.022-74.909-12.99-140.725-61.053-202.211-110.848-61.486-49.362-118.642-100.023-129.034-159.344-9.959-59.754 25.98-127.735 45.465-205.675 19.052-78.373 21.217-166.272 64.517-194.85 43.3-28.578 127.735 2.598 207.84 8.227 80.538 6.062 156.313-13.423 214.335 10.392z" fill="#FBBA00"/></mask></svg>